<?xml version="1.0" encoding="UTF-8" standalone="no"?> <svg xmlns="http://www.w3.org/2000/svg" data-name="Layer 1" viewBox="0 0 32 32"><path fill="#fbbf13" d="M19.46,28.5a3.14912,3.14912,0,0,1-.31,1,3.48066,3.48066,0,0,1-6.3,0,3.14912,3.14912,0,0,1-.31-1Z"/><circle cx="16" cy="2.5" r="2" fill="#fbbf13"/><path fill="#eab220" d="M15 2.5A1.99524 1.99524 0 0 1 16.5.57074 1.99685 1.99685 0 1 0 16 4.5a1.983 1.983 0 0 0 .5-.07074A1.99529 1.99529 0 0 1 15 2.5zM13.54 28.5h-1a3.502 3.502 0 0 0 3.46 3 3.46254 3.46254 0 0 0 .5-.04626A3.49733 3.49733 0 0 1 13.54 28.5z"/><path fill="#fdd402" d="M28.5,28.5H3.5v-2a2,2,0,0,1,2-2h21a2,2,0,0,1,2,2Z"/><path fill="#fbbf13" d="M6.5,24.5h-1a2,2,0,0,0-2,2v2h1v-2A2,2,0,0,1,6.5,24.5Z"/><path fill="#fdd402" d="M26.5,24.5H5.5a2.00591,2.00591,0,0,0,2-2V13a8.5,8.5,0,0,1,17,0v9.5A2.00591,2.00591,0,0,0,26.5,24.5Z"/><path fill="#fbbf13" d="M8.5,22.5V13a8.48161,8.48161,0,0,1,7.99969-8.47473C16.33344,4.51556,16.1687,4.5,16,4.5A8.50136,8.50136,0,0,0,7.5,13v9.5a2.00591,2.00591,0,0,1-2,2h1A2.00591,2.00591,0,0,0,8.5,22.5Z"/><path fill="#fbbf13" d="M26.5,24.5H5.5a2.00591,2.00591,0,0,0,2-2v-1h17v1A2.00591,2.00591,0,0,0,26.5,24.5Z"/><path fill="#8b8891" d="M30.30957,20.646a.50034.50034,0,0,1-.40039-.7998,5.54107,5.54107,0,0,0-.9707-7.60107.5.5,0,0,1,.623-.78223A6.549,6.549,0,0,1,30.71,20.4458.49981.49981,0,0,1,30.30957,20.646Z"/><path fill="#8b8891" d="M27.90918 18.8457a.5.5 0 0 1-.39941-.80029 2.5175 2.5175 0 0 0-.44629-3.4585.49979.49979 0 0 1 .62109-.7832 3.5229 3.5229 0 0 1 .624 4.84229A.49753.49753 0 0 1 27.90918 18.8457zM1.69043 20.646A.49981.49981 0 0 1 1.29 20.4458a6.549 6.549 0 0 1 1.14844-8.98291.5.5 0 0 1 .623.78223 5.54107 5.54107 0 0 0-.9707 7.60107.50034.50034 0 0 1-.40039.7998z"/><path fill="#8b8891" d="M4.09082,18.8457a.49753.49753,0,0,1-.39941-.19971,3.5229,3.5229,0,0,1,.624-4.84229.49979.49979,0,0,1,.62109.7832,2.5175,2.5175,0,0,0-.44629,3.4585.5.5,0,0,1-.39941.80029Z"/></svg>