<?xml version="1.0" encoding="UTF-8" standalone="no"?> <svg height="512pt" viewBox="0 0 512 512.00159" width="512pt" xmlns="http://www.w3.org/2000/svg"><path d="m421.167969 23.789062c-8.300781 12.902344-12.832031 28-12.832031 43.585938v164.625h25.664062v-164.625c0-15.582031-4.535156-30.683594-12.832031-43.585938zm0 0" fill="#c9f3ff"/><path d="m502 256c0-13.253906-10.746094-24-24-24h-65.996094c-13.257812 0-24 10.746094-24 24 0 13.257812 10.742188 24 24 24h65.996094c13.253906 0 24-10.742188 24-24zm0 0" fill="#ffc66c"/><path d="m490 456.609375v-108.976563c0-8.289062-3.882812-16.101562-10.496094-21.105468-6.613281-5.003906-10.496094-12.816406-10.496094-21.105469v-25.421875h-62.015624v25.421875c0 8.289063-3.882813 16.101563-10.496094 21.105469-6.613282 5.003906-10.496094 12.816406-10.496094 21.105468v108.976563c0 25.070313 20.320312 45.390625 45.390625 45.390625h13.21875c25.070313 0 45.390625-20.320312 45.390625-45.390625zm0 0" fill="#ffb954"/><path d="m135.996094 324.488281v-143.464843c33.980468-13.519532 58.003906-46.707032 58.003906-85.511719 0-22.777344-8.289062-43.621094-22.003906-59.6875v44.191406c0 12.425781-10.074219 22.496094-22.5 22.496094h-22.996094c-2.257812 0-4.441406-.335938-6.5-.957031-2.058594.621093-4.242188.957031-6.503906.957031h-22.992188c-12.425781 0-22.5-10.070313-22.5-22.496094v-44.191406c-13.714844 16.066406-22.003906 36.910156-22.003906 59.6875 0 38.804687 24.023438 71.992187 58.003906 85.511719v143.464843c-33.808594 13.453125-57.761718 46.378907-58.003906 84.925781-.277344 44.601563 31.722656 82.355469 74.042969 90.8125 42.167969-8.386718 73.957031-45.589843 73.957031-90.226562 0-38.800781-24.023438-71.988281-58.003906-85.511719zm0 0" fill="#c9f3ff"/><path d="m138 410c0 19.882812-16.117188 36-36 36s-36-16.117188-36-36 16.117188-36 36-36 36 16.117188 36 36zm0 0" fill="#fff"/><path d="m56 410c0 25.363281 20.636719 46 46 46s46-20.636719 46-46-20.636719-46-46-46-46 20.636719-46 46zm46-26c14.335938 0 26 11.664062 26 26s-11.664062 26-26 26-26-11.664062-26-26 11.664062-26 26-26zm0 0"/><path d="m75.082031 266.742188c1.859375-1.859376 2.917969-4.441407 2.917969-7.070313 0-2.640625-1.058594-5.210937-2.917969-7.070313-1.863281-1.871093-4.441406-2.929687-7.082031-2.929687-2.628906 0-5.210938 1.058594-7.070312 2.929687-1.859376 1.859376-2.917969 4.429688-2.917969 7.070313 0 2.628906 1.058593 5.210937 2.917969 7.070313 1.871093 1.859374 4.441406 2.929687 7.070312 2.929687 2.640625 0 5.210938-1.070313 7.082031-2.929687zm0 0"/><path d="m185.96875 153.433594c11.796875-17.070313 18.03125-37.097656 18.03125-57.921875 0-20.820313-6.234375-40.847657-18.03125-57.917969-11.515625-16.667969-27.519531-29.421875-46.273438-36.882812-3.082031-1.230469-6.570312-.847657-9.3125 1.015624-2.746093 1.859376-4.386718 4.960938-4.386718 8.273438v70.015625c0 6.890625-5.605469 12.496094-12.496094 12.496094h-22.996094c-6.894531 0-12.5-5.605469-12.5-12.496094v-70.015625c0-3.3125-1.640625-6.414062-4.386718-8.273438-2.742188-1.859374-6.226563-2.242187-9.308594-1.015624-18.757813 7.460937-34.761719 20.214843-46.277344 36.882812-11.796875 17.070312-18.03125 37.097656-18.03125 57.917969 0 20.824219 6.234375 40.851562 18.03125 57.921875 10.207031 14.769531 23.929688 26.460937 39.972656 34.128906v30.773438c0 5.519531 4.480469 10 10 10 5.523438 0 10-4.480469 10-10v-37.3125c0-4.09375-2.496094-7.777344-6.300781-9.289063-31.410156-12.5-51.703125-42.417969-51.703125-76.222656 0-28.59375 14.519531-54.40625 38.003906-69.25v53.753906c0 17.917969 14.578125 32.496094 32.5 32.496094h22.992188c17.921875 0 32.5-14.578125 32.5-32.496094v-53.753906c23.484375 14.84375 38.003906 40.65625 38.003906 69.25 0 33.804687-20.292969 63.726562-51.703125 76.222656-3.804687 1.515625-6.300781 5.195313-6.300781 9.289063v143.464843c0 4.097657 2.496094 7.777344 6.300781 9.292969 31.410156 12.496094 51.703125 42.414062 51.703125 76.21875 0 22.121094-8.675781 42.855469-24.425781 58.390625-15.746094 15.527344-36.628907 23.941406-58.746094 23.601563-44.847656-.625-81.105469-37.640626-80.828125-82.515626.210938-33.570312 20.503906-63.28125 51.703125-75.695312 3.804687-1.515625 6.300781-5.195312 6.300781-9.292969v-23.277343c0-5.523438-4.476562-10-10-10-5.523437 0-10 4.476562-10 10v16.738281c-35.210937 16.785156-57.753906 51.953125-57.99999975 91.402343-.34765625 55.816407 44.75390575 101.859376 100.54687475 102.640626.488281.007812.976563.007812 1.464844.007812 26.984375 0 52.363281-10.394531 71.601563-29.371094 19.59375-19.320312 30.382812-45.113281 30.382812-72.628906 0-20.820312-6.234375-40.847656-18.03125-57.917969-10.203125-14.765625-23.929688-26.460937-39.972656-34.128906v-130.390625c16.042968-7.667969 29.769531-19.359375 39.972656-34.128906zm0 0"/><path d="m512 256c0-18.746094-15.253906-34-34-34h-34v-30.332031c0-5.523438-4.476562-10-10-10s-10 4.476562-10 10v30.332031h-28v-154.625c0-15.179688 5.015625-30.0625 14-42.167969 8.988281 12.105469 14 26.988281 14 42.167969v40.292969c0 5.523437 4.476562 10 10 10s10-4.476563 10-10v-40.292969c0-24.082031-9.832031-47.585938-26.976562-64.492188-3.894532-3.839843-10.152344-3.839843-14.042969 0-17.144531 16.90625-26.980469 40.410157-26.980469 64.492188v154.625h-34c-18.746094 0-34 15.253906-34 34 0 18.410156 14.710938 33.4375 32.992188 33.976562v15.445313c0 5.128906-2.441407 10.035156-6.53125 13.128906-9.054688 6.855469-14.460938 17.726563-14.460938 29.082031v108.976563c0 30.542969 24.847656 55.390625 55.390625 55.390625h69.21875c30.542969 0 55.390625-24.847656 55.390625-55.390625v-108.976563c0-11.355468-5.40625-22.226562-14.460938-29.082031-4.089843-3.09375-6.53125-8-6.53125-13.128906v-15.445313c18.28125-.535156 32.992188-15.566406 32.992188-33.976562zm-183.996094 0c0-7.71875 6.277344-14 14-14h135.996094c7.71875 0 14 6.28125 14 14 0 7.722656-6.28125 14-14 14h-135.996094c-7.722656 0-14-6.277344-14-14zm151.996094 91.632812v108.976563c0 18.824219-14.773438 34.257813-33.332031 35.328125v-100.9375c0-5.519531-4.476563-10-10-10-5.523438 0-10 4.480469-10 10v101h-33.332031v-101c0-5.519531-4.476563-10-10-10-5.523438 0-10 4.480469-10 10v100.9375c-18.5625-1.070312-33.332032-16.503906-33.332032-35.328125v-108.976563c0-5.128906 2.4375-10.039062 6.527344-13.132812 9.058594-6.851562 14.464844-17.722656 14.464844-29.078125v-15.421875h98.011718v15.421875c0 11.355469 5.40625 22.226563 14.464844 29.078125 4.085938 3.09375 6.527344 8.003906 6.527344 13.132812zm0 0"/><path d="m434 143.671875c-2.628906 0-5.210938 1.070313-7.070312 2.929687-1.859376 1.859376-2.929688 4.429688-2.929688 7.070313 0 2.628906 1.070312 5.210937 2.929688 7.070313 1.859374 1.859374 4.441406 2.929687 7.070312 2.929687s5.210938-1.070313 7.070312-2.929687c1.859376-1.859376 2.929688-4.441407 2.929688-7.070313 0-2.640625-1.070312-5.210937-2.929688-7.070313-1.859374-1.859374-4.441406-2.929687-7.070312-2.929687zm0 0"/></svg>